<?xml version="1.0" encoding="utf-8"?>
<!-- Uploaded to: SVG Repo, www.svgrepo.com, Generator: SVG Repo Mixer Tools -->
<svg width="800px" height="800px" viewBox="0 0 1024 1024" class="icon"  version="1.1" xmlns="http://www.w3.org/2000/svg"><path d="M539.7 463.1V273.5l90.8-91.2c11-11 10.9-28.7 0-39.6-11-11-28.7-10.9-39.6 0L539.7 194V91.3c0-15.1-12.5-27.8-28-27.8-15.6 0-28 12.5-28 27.8V195L432.5 143.8c-10.9-10.9-28.6-11-39.6 0-10.9 10.9-11 28.6 0 39.6l90.8 91.2v188.6l-164.2-94.8L286 244.1c-4-15-19.4-23.8-34.3-19.8-15 4-23.8 19.4-19.8 34.3l18.7 70-88.9-51.4c-13.1-7.6-30.4-3-38.1 10.4-7.8 13.5-3.2 30.5 10.1 38.2l89.8 51.9-70 18.7c-14.9 4-23.8 19.3-19.8 34.3 4 14.9 19.3 23.8 34.3 19.8l124.4-33.1 163.3 94.3-164.2 94.8-124.4-33.1c-15-4-30.3 4.9-34.3 19.8-4 15 4.9 30.3 19.8 34.3l70 18.7-88.9 51.4c-13.1 7.6-17.8 24.8-10.1 38.2 7.8 13.5 24.8 18 38.1 10.4l89.8-51.9-18.7 70c-4 14.9 4.8 30.3 19.8 34.3 14.9 4 30.3-4.8 34.3-19.8l33.6-124.3 163.3-94.3v190.6l-90.8 93c-11 11-10.9 28.7 0 39.6 11 11 28.7 10.9 39.6 0l51.2-51.2v99.9c0 15.1 12.5 27.8 28 27.8 15.6 0 28-12.5 28-27.8v-101l51.2 51.2c10.9 10.9 28.6 11 39.6 0 10.9-10.9 11-28.6 0-39.6l-90.8-93V560.2l165.1 95.3L740 780.6c4 15 19.4 23.8 34.3 19.8 15-4 23.8-19.4 19.8-34.3l-18.7-70 86.6 50c13.1 7.6 30.4 3 38.1-10.4 7.8-13.5 3.2-30.5-10.1-38.2L802.6 647l70-18.7c14.9-4 23.8-19.3 19.8-34.3-4-14.9-19.3-23.8-34.3-19.8l-125.9 32.2L568 511.6l165.1-95.3L859 448.5c15 4 30.3-4.9 34.3-19.8 4-15-4.9-30.3-19.8-34.3l-70-18.7 86.6-50c13.1-7.6 17.8-24.8 10.1-38.2-7.8-13.5-24.8-18-38.1-10.4l-87.4 50.5 18.7-70c4-14.9-4.8-30.3-19.8-34.3-14.9-4-30.3 4.8-34.3 19.8l-35.1 125.1-164.5 94.9z" fill="#5E676F" /></svg>